<svg width="16" height="20" viewBox="0 0 16 20" fill="none" xmlns="http://www.w3.org/2000/svg">
<path fill-rule="evenodd" clip-rule="evenodd" d="M16 2.68567V14.1929C16 14.6171 15.8318 15.024 15.531 15.3238L11.4953 19.3595C11.3469 19.5083 11.1707 19.6263 10.9766 19.7068C10.7825 19.7872 10.5744 19.8286 10.3643 19.8285H2.51429C1.84777 19.8285 1.20777 19.5634 0.736 19.0925C0.264956 18.6206 0.000279968 17.9811 0 17.3142V2.68567C0 2.01916 0.265143 1.37916 0.736 0.907387C1.20797 0.436343 1.84747 0.171667 2.51429 0.171387H13.4857C14.1522 0.171387 14.7922 0.43653 15.264 0.907387C15.7349 1.37916 16 2.01916 16 2.68567ZM10.2857 18.2285L14.4 14.1142H11.2C10.9575 14.1142 10.725 14.2106 10.5535 14.382C10.382 14.5535 10.2857 14.786 10.2857 15.0285V18.2285ZM4.34286 5.19996H11.6571C11.839 5.19996 12.0134 5.12771 12.142 4.99912C12.2706 4.87052 12.3429 4.69611 12.3429 4.51424C12.3429 4.33238 12.2706 4.15797 12.142 4.02937C12.0134 3.90077 11.839 3.82853 11.6571 3.82853H4.34286C4.16099 3.82853 3.98658 3.90077 3.85798 4.02937C3.72939 4.15797 3.65714 4.33238 3.65714 4.51424C3.65714 4.69611 3.72939 4.87052 3.85798 4.99912C3.98658 5.12771 4.16099 5.19996 4.34286 5.19996ZM4.34286 16.1714H7.54286C7.72472 16.1714 7.89913 16.0991 8.02773 15.9705C8.15633 15.8419 8.22857 15.6675 8.22857 15.4857C8.22857 15.3038 8.15633 15.1294 8.02773 15.0008C7.89913 14.8722 7.72472 14.8 7.54286 14.8H4.34286C4.16099 14.8 3.98658 14.8722 3.85798 15.0008C3.72939 15.1294 3.65714 15.3038 3.65714 15.4857C3.65714 15.6675 3.72939 15.8419 3.85798 15.9705C3.98658 16.0991 4.16099 16.1714 4.34286 16.1714ZM4.34286 12.5142H8.91429C9.09615 12.5142 9.27056 12.442 9.39916 12.3134C9.52775 12.1848 9.6 12.0104 9.6 11.8285C9.6 11.6467 9.52775 11.4723 9.39916 11.3437C9.27056 11.2151 9.09615 11.1428 8.91429 11.1428H4.34286C4.16099 11.1428 3.98658 11.2151 3.85798 11.3437C3.72939 11.4723 3.65714 11.6467 3.65714 11.8285C3.65714 12.0104 3.72939 12.1848 3.85798 12.3134C3.98658 12.442 4.16099 12.5142 4.34286 12.5142ZM4.34286 8.8571H11.6571C11.839 8.8571 12.0134 8.78486 12.142 8.65626C12.2706 8.52766 12.3429 8.35325 12.3429 8.17139C12.3429 7.98952 12.2706 7.81511 12.142 7.68651C12.0134 7.55792 11.839 7.48567 11.6571 7.48567H4.34286C4.16099 7.48567 3.98658 7.55792 3.85798 7.68651C3.72939 7.81511 3.65714 7.98952 3.65714 8.17139C3.65714 8.35325 3.72939 8.52766 3.85798 8.65626C3.98658 8.78486 4.16099 8.8571 4.34286 8.8571Z" fill="#EF4A00"/>
</svg>
