<svg width="18" height="20" viewBox="0 0 18 20" fill="none" xmlns="http://www.w3.org/2000/svg">
<path d="M5.04647 9.07804C4.48692 8.11673 4.18637 6.9746 4.18637 5.77554C4.18637 3.06833 4.18637 0 8.99971 0C13.8117 0 13.8117 3.06839 13.8117 5.77554C13.8117 6.9758 13.5112 8.11792 12.9529 9.07804H11.7608C12.3046 8.35574 12.6498 7.45915 12.7633 6.48761C12.2953 6.59945 11.8147 6.65573 11.3324 6.65519C9.54605 6.65519 7.89327 5.89538 6.78116 4.59227C6.34578 5.1434 5.80916 5.61351 5.19775 5.97942C5.23557 7.14457 5.59974 8.22987 6.23807 9.07804H5.04647ZM1.88964 13.1549C0.891584 14.2057 0.323217 15.6292 0.323217 17.092V18.0781H7.13521V17.4846H2.39308C2.1152 17.4846 1.88964 17.268 1.88964 17.0006V14.8439V13.1549ZM9.85725 16.4676H8.14274V19.0448H0V20H18V19.0448H9.85725V16.4676ZM7.13521 15.9837C7.13521 15.7169 7.36083 15.5003 7.63865 15.5003H10.3606C10.6392 15.5003 10.8647 15.7169 10.8647 15.9837V16.5172H15.1028V10.0454H2.89717V16.5172H7.13521V15.9837ZM10.8648 18.0781H17.6749V17.092C17.6749 15.628 17.1078 14.2045 16.1104 13.1549V17.0006C16.1104 17.268 15.8848 17.4846 15.6069 17.4846H10.8648V18.0781Z" fill="#45B369"/>
</svg>
