<svg width="20" height="22" viewBox="0 0 20 22" fill="none" xmlns="http://www.w3.org/2000/svg">
<path d="M19.7376 14.4559C19.7371 14.3792 19.7129 14.3044 19.6685 14.2419C19.624 14.1794 19.5613 14.132 19.489 14.1064L16.033 12.8726C15.9517 12.8426 15.8623 12.8426 15.781 12.8726L12.325 14.1064C12.2531 14.1327 12.191 14.1803 12.1466 14.2426C12.1023 14.305 12.0779 14.3794 12.0767 14.4559L12.043 17.6415C12.043 19.7663 13.9945 21.0071 15.9088 21.4999C17.8232 21.0071 19.7713 19.7663 19.7713 17.6374L19.7376 14.4559ZM17.3263 16.671L15.7888 18.2093C15.7178 18.2783 15.6226 18.317 15.5235 18.317C15.4244 18.317 15.3293 18.2783 15.2582 18.2093L14.491 17.4383C14.4227 17.3675 14.3849 17.2728 14.3857 17.1745C14.3866 17.0762 14.426 16.9821 14.4955 16.9126C14.5651 16.8431 14.6591 16.8036 14.7574 16.8028C14.8558 16.8019 14.9505 16.8397 15.0212 16.908L15.5215 17.412L16.7927 16.1408C16.8638 16.074 16.9581 16.0374 17.0557 16.0387C17.1533 16.0401 17.2465 16.0793 17.3158 16.148C17.385 16.2168 17.4249 16.3098 17.4269 16.4073C17.4289 16.5049 17.3926 16.5994 17.3263 16.671Z" fill="#144BD6"/>
<path d="M11.3243 14.4485C11.3283 14.2184 11.402 13.995 11.5356 13.8076C11.6692 13.6203 11.8566 13.4779 12.0728 13.3993C12.1947 13.3782 15.9293 11.9608 15.9091 12.098C16.1693 12.0594 17.9753 12.7895 18.2592 12.869V6.36275L9.61694 11.549V21.2105L11.9374 19.8193C11.5124 19.1728 11.2874 18.4153 11.2906 17.6416L11.3243 14.4485ZM0.226562 16.028L8.86469 21.2105V11.549L0.226562 6.36312V16.028ZM9.24081 0.5L0.579812 5.6975L9.24081 10.8946L17.9056 5.6975L9.24081 0.5Z" fill="#144BD6"/>
</svg>
