<svg width="28" height="28" viewBox="0 0 28 28" fill="none" xmlns="http://www.w3.org/2000/svg">
<path d="M5.46076 9.17243C5.12438 8.97813 4.69444 9.09349 4.50038 9.42968C4.30608 9.76606 4.42144 10.196 4.75763 10.3901C5.09382 10.5844 5.52394 10.469 5.71801 10.1328C5.9123 9.79643 5.79694 9.36649 5.46076 9.17243ZM23.3905 7.67205H22.6874V6.96892C22.6874 6.58033 22.373 6.2658 21.9842 6.2658C21.5957 6.2658 21.2811 6.58033 21.2811 6.96892V7.67205H20.578C20.1894 7.67205 19.8749 7.98658 19.8749 8.37518C19.8749 8.76391 20.1894 9.0783 20.578 9.0783H21.2811V9.78143C21.2811 10.17 21.5957 10.4846 21.9842 10.4846C22.373 10.4846 22.6874 10.17 22.6874 9.78143V9.0783H23.3905C23.7791 9.0783 24.0936 8.76391 24.0936 8.37518C24.0936 7.98658 23.7791 7.67205 23.3905 7.67205ZM4.40625 5.5158C4.40625 5.90453 4.72064 6.21892 5.10938 6.21892C5.49797 6.21892 5.81251 5.90453 5.81251 5.5158V4.81267H6.51563C6.90423 4.81267 7.21876 4.49828 7.21876 4.10954C7.21876 3.72095 6.90423 3.40642 6.51563 3.40642H5.81251V2.70329C5.81251 2.31469 5.49797 2.00016 5.10938 2.00016C4.72064 2.00016 4.40625 2.31469 4.40625 2.70329V3.40642H3.70313C3.31453 3.40642 3 3.72095 3 4.10954C3 4.49828 3.31453 4.81267 3.70313 4.81267H4.40625V5.5158ZM8.84748 3.31449C9.51672 4.65334 9.88844 6.13141 9.982 7.62513H17.1118C17.2052 6.13159 17.5769 4.65334 18.2461 3.31449L18.3944 3.01787C18.4605 2.88588 18.4833 2.73647 18.4596 2.59081C18.4359 2.44514 18.367 2.31062 18.2626 2.20632C18.0491 1.9921 17.7223 1.93918 17.4511 2.07451L15.0918 3.25407L14.0439 2.20632C13.7692 1.93168 13.3242 1.93168 13.0496 2.20632L12.0019 3.25407L9.64253 2.07432C9.37066 1.93918 9.04595 1.99135 8.83103 2.20632C8.72662 2.31061 8.65769 2.44513 8.63402 2.5908C8.61035 2.73646 8.63315 2.88588 8.69917 3.01787L8.84748 3.31449ZM17.8517 9.0783H9.2417L6.49641 12.401C5.14857 14.0331 4.40625 16.1459 4.40625 18.2658C4.40625 22.9643 7.99407 26 13.5467 26C19.0996 26 22.6874 22.9643 22.6874 18.2658C22.6874 16.146 21.945 14.08 20.5965 12.4478L17.8517 9.0783ZM13.5392 16.3624C14.7025 16.3624 15.6486 17.3085 15.6486 18.4718C15.6486 19.3845 15.0627 20.1558 14.2498 20.4492V21.0783C14.2498 21.4669 13.9354 21.7815 13.5467 21.7815C13.1582 21.7815 12.8438 21.4669 12.8438 21.0783V20.454C12.0231 20.1648 11.4298 19.3899 11.4298 18.4718C11.4298 18.0831 11.7444 17.7687 12.133 17.7687C12.5217 17.7687 12.8361 18.0831 12.8361 18.4718C12.8361 18.8598 13.1514 19.1749 13.5392 19.1749C13.9272 19.1749 14.2423 18.8598 14.2423 18.4718C14.2423 18.0838 13.9272 17.7687 13.5392 17.7687C12.3761 17.7687 11.4298 16.8224 11.4298 15.6593C11.4298 14.741 12.0231 13.9663 12.8438 13.6772V12.6408C12.8438 12.2523 13.1582 11.9376 13.5467 11.9376C13.9354 11.9376 14.2498 12.2523 14.2498 12.6408V13.682C15.0627 13.9753 15.6486 14.7467 15.6486 15.6593C15.6486 16.048 15.3342 16.3624 14.9455 16.3624C14.5569 16.3624 14.2423 16.048 14.2423 15.6593C14.2423 15.2715 13.9272 14.9562 13.5392 14.9562C13.1514 14.9562 12.8361 15.2715 12.8361 15.6593C12.8361 16.0473 13.1512 16.3624 13.5392 16.3624Z" fill="white"/>
</svg>
