<svg width="22" height="24" viewBox="0 0 22 24" fill="none" xmlns="http://www.w3.org/2000/svg">
<path d="M6.76264 12.085C10.0976 12.085 12.8026 9.37997 12.8026 6.04498C12.8026 2.70999 10.0976 0 6.76264 0C3.42765 0 0.722656 2.70499 0.722656 6.03998C0.722656 9.37497 3.42765 12.085 6.76264 12.085ZM4.65264 8.42997C4.70764 8.22997 4.76264 8.03497 4.82264 7.83497C4.89264 7.60497 4.95764 7.57997 5.16764 7.68997C5.52764 7.87497 5.90764 7.97997 6.30764 8.02997C6.56264 8.05997 6.81764 8.03497 7.05263 7.92997C7.49763 7.73497 7.56763 7.21997 7.19263 6.90998C7.06263 6.80498 6.91763 6.72498 6.76764 6.65998C6.37764 6.48998 5.97264 6.35998 5.60264 6.13998C5.00764 5.78498 4.62764 5.28998 4.67264 4.56498C4.72264 3.74499 5.18764 3.22999 5.93764 2.95999C6.24764 2.84499 6.24764 2.84999 6.25264 2.52499V2.19499C6.25764 1.94999 6.30264 1.90999 6.54264 1.89999H6.76764C7.28763 1.89999 7.28763 1.89999 7.28763 2.41999C7.28763 2.78499 7.28763 2.78999 7.65263 2.84499C7.93263 2.88999 8.19763 2.96999 8.45763 3.08499C8.60263 3.14999 8.65263 3.24999 8.61263 3.39999C8.54763 3.62499 8.48763 3.84999 8.41263 4.06999C8.34263 4.27998 8.27763 4.30999 8.07763 4.21499C7.67263 4.01999 7.24763 3.93499 6.79764 3.95999C6.67764 3.96499 6.56764 3.97999 6.45764 4.02999C6.07264 4.19999 6.00764 4.62498 6.33764 4.88998C6.50264 5.02498 6.69264 5.11998 6.89264 5.19998C7.23263 5.33998 7.57763 5.47998 7.90763 5.65998C8.94263 6.23498 9.22263 7.53497 8.49263 8.41997C8.22763 8.73997 7.88763 8.95497 7.48263 9.06497C7.30763 9.11497 7.22763 9.20497 7.23763 9.38497C7.24763 9.56497 7.23763 9.73997 7.23763 9.91996C7.23763 10.08 7.15763 10.165 6.99763 10.17C6.80764 10.175 6.61264 10.175 6.42264 10.17C6.25264 10.165 6.17264 10.07 6.17264 9.90497C6.17264 9.77497 6.17264 9.64497 6.16764 9.51497C6.16264 9.22997 6.15764 9.21497 5.87764 9.16997C5.52264 9.11497 5.17764 9.03497 4.85264 8.87497C4.60764 8.75997 4.58264 8.69497 4.65264 8.42997Z" fill="white"/>
<path d="M20.3124 12.5902H19.6074C19.1424 11.1652 18.2324 9.90017 17.0174 8.92017C17.0174 8.87517 17.0074 8.82517 16.9974 8.78017C16.7424 7.88518 17.0574 7.07018 17.4224 6.48518C17.6774 6.07518 17.3474 5.55018 16.8674 5.61018C15.7925 5.74518 15.0525 6.14018 14.5425 6.58518C14.1925 6.89018 13.9425 7.30018 13.8325 7.75518C13.0625 10.9452 10.1875 13.3202 6.76248 13.3202C5.09749 13.3202 3.56749 12.7602 2.3425 11.8202C1.9175 12.7402 1.6875 13.7452 1.6875 14.8002C1.6875 15.3701 1.7575 15.9251 1.8875 16.4601C1.8875 16.4601 1.8875 16.4701 1.8925 16.4851C2.0275 17.0401 2.2325 17.5751 2.4925 18.0801C2.8375 18.8251 3.33749 19.6951 4.02749 20.4001C5.02249 21.4251 5.19249 22.6951 5.21749 23.2451V23.5151C5.23749 23.7851 5.46249 24.0001 5.73749 24.0001H8.89748C9.18247 24.0001 9.41747 23.7701 9.41747 23.4801V22.7001C9.87747 22.7601 10.3475 22.7951 10.8225 22.7951C11.1975 22.7951 11.5625 22.7751 11.9275 22.7351V23.4801C11.9275 23.7651 12.1575 24.0001 12.4475 24.0001H15.6175C15.9025 24.0001 16.1375 23.7701 16.1375 23.4801V22.7001C16.1425 22.4401 16.2325 21.4051 17.2124 20.5201L17.3174 20.4301C17.3274 20.4201 17.3374 20.4151 17.3474 20.4051C18.4374 19.4351 19.2424 18.2251 19.6574 16.8751H20.3224C20.8524 16.8751 21.2824 16.4451 21.2824 15.9151V13.5502C21.2724 13.0202 20.8424 12.5902 20.3124 12.5902ZM16.3574 12.7602C15.9225 12.7602 15.5725 12.4102 15.5725 11.9752C15.5725 11.5402 15.9225 11.1902 16.3574 11.1902C16.7924 11.1902 17.1424 11.5402 17.1424 11.9752C17.1424 12.4102 16.7924 12.7602 16.3574 12.7602Z" fill="white"/>
</svg>
