<svg width="22" height="24" viewBox="0 0 22 24" fill="none" xmlns="http://www.w3.org/2000/svg">
<path d="M19.1035 0C17.7308 0 16.618 1.11281 16.618 2.48555V9.90187H20.8859C21.2743 9.90187 21.5891 9.58706 21.5891 9.19875V2.48555C21.5891 1.11281 20.4762 0 19.1035 0ZM7.49895 17.6719C7.49895 13.4244 10.9542 9.92611 15.2585 9.93783V2.78841C15.2585 1.71886 15.6611 0.741703 16.3224 0H3.92094C1.98312 0 0.40625 1.57687 0.40625 3.51469V23.2842C0.40625 23.9167 1.18002 24.2275 1.6175 23.7703L2.51703 22.8309L3.46719 23.7816C3.74141 24.0558 4.18672 24.0558 4.46141 23.7816L5.36188 22.8816L6.27125 23.7834C6.54547 24.0553 6.9875 24.0553 7.26172 23.7834L8.18562 22.8675L9.11 23.7834C9.38375 24.0553 9.82531 24.0553 10.0995 23.7839L10.2786 23.6067C8.53522 22.1491 7.49895 19.9939 7.49895 17.6719ZM6.09434 5.67187H7.48203V4.28419C7.48203 3.89587 7.79684 3.58106 8.18516 3.58106C8.57347 3.58106 8.88828 3.89587 8.88828 4.28419V5.67187H10.276C10.6643 5.67187 10.9791 5.98669 10.9791 6.375C10.9791 6.76331 10.6643 7.07812 10.276 7.07812H8.88828V8.46581C8.88828 8.85412 8.57347 9.16894 8.18516 9.16894C7.79684 9.16894 7.48203 8.85412 7.48203 8.46581V7.07812H6.09434C5.70603 7.07812 5.39122 6.76331 5.39122 6.375C5.39122 5.98669 5.70603 5.67187 6.09434 5.67187ZM3.96636 10.5961H8.70078C9.08909 10.5961 9.40391 10.9109 9.40391 11.2992C9.40391 11.6875 9.08909 12.0023 8.70078 12.0023H3.96636C3.57805 12.0023 3.26323 11.6875 3.26323 11.2992C3.26323 10.9109 3.57805 10.5961 3.96636 10.5961ZM6.31245 17.6227H3.96167C3.57336 17.6227 3.25855 17.3078 3.25855 16.9195C3.25855 16.5312 3.57336 16.2164 3.96167 16.2164H6.31245C6.70077 16.2164 7.01558 16.5312 7.01558 16.9195C7.01558 17.3078 6.70077 17.6227 6.31245 17.6227ZM6.78125 14.8148H3.96397C3.57566 14.8148 3.26084 14.5 3.26084 14.1117C3.26084 13.7234 3.57566 13.4086 3.96397 13.4086H6.78125C7.16956 13.4086 7.48438 13.7234 7.48438 14.1117C7.48438 14.5 7.16956 14.8148 6.78125 14.8148Z" fill="white"/>
<path d="M15.2305 11.3438C11.7411 11.3438 8.90234 14.1825 8.90234 17.6719C8.90234 21.1612 11.7411 24 15.2305 24C18.7198 24 21.5586 21.1612 21.5586 17.6719C21.5586 14.1825 18.7198 11.3438 15.2305 11.3438ZM15.9358 20.3798V20.4466C15.9358 20.835 15.621 21.1498 15.2327 21.1498C14.8444 21.1498 14.5295 20.835 14.5295 20.4466V20.4347C14.2146 20.3597 13.9224 20.2356 13.6907 20.084C13.3657 19.8714 13.2746 19.4356 13.4872 19.1107C13.6998 18.7856 14.1356 18.6946 14.4605 18.9072C14.7483 19.0955 15.2227 19.167 15.4558 19.0573C15.6069 18.9862 15.7238 18.8344 15.7401 18.6883C15.7749 18.3769 15.2871 18.2032 14.9959 18.0882C14.5552 17.9142 14.0067 17.6975 13.6882 17.1226C13.2343 16.3033 13.6319 15.223 14.5295 14.8535V14.8181C14.5295 14.4298 14.8444 14.115 15.2327 14.115C15.6171 14.115 15.9291 14.4237 15.9352 14.8067C16.1883 14.8858 16.4215 15.0124 16.6081 15.1845C16.8936 15.4478 16.9115 15.8926 16.6483 16.1781C16.385 16.4636 15.9401 16.4815 15.6547 16.2182C15.539 16.1115 15.1826 16.0685 15.0276 16.1725C14.9235 16.2425 14.8827 16.3767 14.9183 16.4411C15.0668 16.7092 15.8445 16.8011 16.433 17.2597C17.6353 18.1965 17.2169 19.8884 15.9358 20.3798Z" fill="white"/>
</svg>
