<svg width="20" height="20" viewBox="0 0 20 20" fill="none" xmlns="http://www.w3.org/2000/svg">
<path d="M14.6872 7.07056C11.7793 7.07056 9.41385 9.43601 9.41385 12.3439C9.41385 15.2518 11.7793 17.6172 14.6872 17.6172C17.595 17.6172 19.9996 15.2518 19.9996 12.3439C19.9996 9.43601 17.5951 7.07056 14.6872 7.07056ZM15.2885 15.1677C15.2835 15.1695 15.2781 15.1687 15.2731 15.1704V15.8594C15.2731 16.1833 15.011 16.4454 14.6871 16.4454C14.3633 16.4454 14.1012 16.1833 14.1012 15.8594V15.1664C13.7153 15.0361 13.3455 14.7886 13.0295 14.4118C12.8212 14.164 12.8532 13.7944 13.1016 13.5867C13.3493 13.3784 13.7201 13.4104 13.9267 13.6588C14.2368 14.0279 14.5876 14.1743 14.8874 14.0668C15.118 13.9827 15.2731 13.7612 15.2731 13.5157C15.2731 13.1925 15.0104 12.9298 14.6871 12.9298C13.7178 12.9298 12.9294 12.1413 12.9294 11.1721C12.9289 10.8265 13.0305 10.4885 13.2214 10.2005C13.4122 9.91239 13.6839 9.68708 14.0023 9.55277C14.0345 9.5391 14.0687 9.53988 14.1012 9.52824V8.82836C14.1012 8.50449 14.3633 8.24242 14.6872 8.24242C15.011 8.24242 15.2731 8.50449 15.2731 8.82836V9.52929C15.5765 9.63179 15.8724 9.79472 16.1365 10.0506C16.3688 10.2755 16.3746 10.6462 16.1491 10.8791C15.9242 11.1114 15.5529 11.1166 15.3206 10.8917C15.0356 10.6153 14.7203 10.5203 14.4594 10.6319C14.3532 10.6767 14.2625 10.7519 14.1988 10.8479C14.135 10.944 14.1011 11.0568 14.1012 11.1721C14.1012 11.4954 14.3639 11.758 14.6871 11.758C15.6564 11.758 16.4449 12.5465 16.4449 13.5158C16.445 14.2522 15.9803 14.9159 15.2885 15.1677ZM0.585934 12.9298C0.262069 12.9298 0 13.1919 0 13.5157V19.4141C0 19.7379 0.262069 20 0.585934 20H2.3437V12.9298H0.585934Z" fill="#FF9F29"/>
<path d="M13.8965 3.65718L9.79503 0.14162C9.57644 -0.0472067 9.25144 -0.0472067 9.03285 0.14162L4.93139 3.65718C4.84037 3.73491 4.77541 3.83872 4.74532 3.95457C4.71523 4.07042 4.72146 4.19272 4.76315 4.30491C4.80454 4.41727 4.8794 4.51422 4.97764 4.58267C5.07587 4.65113 5.19274 4.6878 5.31248 4.68772H7.07024V19.9999H11.1717C11.4956 19.9999 11.7577 19.7379 11.7577 19.414V18.0775C9.67401 17.0084 8.24211 14.8424 8.24211 12.3438C8.24211 9.84531 9.67405 7.67927 11.7577 6.61017V4.68776H13.5154C13.6352 4.68783 13.752 4.65116 13.8503 4.58271C13.9485 4.51425 14.0234 4.4173 14.0648 4.30495C14.1065 4.19275 14.1127 4.07044 14.0826 3.95458C14.0525 3.83872 13.9876 3.73491 13.8965 3.65718Z" fill="#FF9F29"/>
<path d="M4.14062 8.24243C3.81676 8.24243 3.55469 8.5045 3.55469 8.82837V20H5.89838V8.24243H4.14062Z" fill="#FF9F29"/>
</svg>
