<svg width="24" height="24" viewBox="0 0 24 24" fill="none" xmlns="http://www.w3.org/2000/svg">
<path d="M2.15625 12.7031H0.703125C0.314484 12.7031 0 13.0176 0 13.4062V23.2969C0 23.6855 0.314484 24 0.703125 24H2.15625C3.31941 24 4.26562 23.0538 4.26562 21.8906V14.8125C4.26562 13.6493 3.31941 12.7031 2.15625 12.7031ZM12 0C7.73527 0 4.26562 3.51652 4.26562 7.78125C4.26562 9.23564 4.671 10.634 5.41655 11.8395C6.36112 11.3123 7.41047 11.0208 8.49952 11.0208C9.99483 11.0208 11.5057 11.544 12.7876 12.7031H16.2656C16.7745 12.7031 17.2432 12.8542 17.6555 13.0914C18.9692 11.7046 19.7812 9.83784 19.7812 7.78125C19.7812 3.51652 16.2647 0 12 0ZM12 5.67188C13.1632 5.67188 14.1094 6.61809 14.1094 7.78125C14.1099 8.19592 13.988 8.60152 13.759 8.9472C13.53 9.29288 13.204 9.56326 12.822 9.72445C12.7831 9.74095 12.7425 9.74738 12.7032 9.76134V10.5938C12.7032 10.9824 12.3887 11.2969 12 11.2969C11.6114 11.2969 11.2969 10.9824 11.2969 10.5938V9.76327C10.932 9.64045 10.5783 9.43444 10.2608 9.12708C9.98203 8.85722 9.97514 8.41228 10.2457 8.13281C10.5156 7.85405 10.9619 7.84786 11.24 8.11772C11.5812 8.448 11.9582 8.56266 12.2734 8.42944C12.4009 8.37571 12.5097 8.28554 12.5861 8.17023C12.6626 8.05492 12.7033 7.91961 12.7032 7.78125C12.7032 7.39331 12.388 7.07812 12.0001 7.07812C10.8369 7.07812 9.89072 6.13191 9.89072 4.96875C9.89062 4.08502 10.4482 3.28852 11.2784 2.98641C11.2845 2.98416 11.2908 2.98519 11.2969 2.98308V2.10938C11.2969 1.72073 11.6114 1.40625 12 1.40625C12.3887 1.40625 12.7032 1.72073 12.7032 2.10938V2.97492C13.1668 3.13116 13.6095 3.44091 13.9893 3.89348C14.2392 4.19081 14.2008 4.63439 13.9028 4.88363C13.6061 5.13427 13.1612 5.09578 12.9126 4.79709C12.5405 4.35488 12.1209 4.17703 11.7597 4.30753C11.483 4.40845 11.2969 4.67419 11.2969 4.96875C11.2969 5.35669 11.6121 5.67188 12 5.67188Z" fill="white"/>
<path d="M23.4235 12.97C22.8469 12.5481 22.0453 12.6325 21.5672 13.1528L17.7704 17.8778C17.5032 18.159 16.9969 18.3278 16.7297 18.3278H12C11.6062 18.3278 11.2969 18.0185 11.2969 17.6247C11.2969 17.2309 11.6062 16.9215 12 16.9215H16.2656C17.0391 16.9215 17.6719 16.2887 17.6719 15.5153C17.6719 14.7419 17.0391 14.109 16.2656 14.109H12.5344C12.1839 14.109 12.0092 13.8868 11.7328 13.6449C11.3109 13.2653 10.8328 12.984 10.3406 12.7871C8.81677 12.1649 7.05595 12.3532 5.67188 13.3157V22.5934H16.2656C17.5875 22.5934 18.8532 21.9137 19.6407 20.859L23.7187 14.9527C24.1829 14.334 24.0562 13.434 23.4235 12.97Z" fill="white"/>
</svg>
